<svg xmlns="http://www.w3.org/2000/svg" width="1200" height="630" viewBox="0 0 1200 630">
  <defs>
    <radialGradient id="glow" cx="78%" cy="20%" r="70%">
      <stop offset="0" stop-color="#5b55e0" stop-opacity=".32"/>
      <stop offset="1" stop-color="#5b55e0" stop-opacity="0"/>
    </radialGradient>
  </defs>
  <rect width="1200" height="630" fill="#121214"/>
  <rect width="1200" height="630" fill="url(#glow)"/>

  <g transform="translate(88 96) scale(.1875)">
    <rect width="512" height="512" rx="116" fill="#5b55e0"/>
    <rect x="172" y="104" width="232" height="268" rx="44" fill="#fff" fill-opacity=".28"/>
    <rect x="124" y="148" width="248" height="268" rx="44" fill="#fff"/>
    <rect x="198" y="120" width="100" height="58" rx="24" fill="#5b55e0"/>
    <rect x="216" y="134" width="64" height="30" rx="15" fill="#fff"/>
    <rect x="168" y="236" width="160" height="28" rx="14" fill="#5b55e0"/>
    <rect x="168" y="286" width="160" height="28" rx="14" fill="#5b55e0" fill-opacity=".55"/>
    <rect x="168" y="336" width="96" height="28" rx="14" fill="#5b55e0" fill-opacity=".3"/>
  </g>

  <g font-family="Helvetica Neue, Helvetica, Arial, sans-serif">
    <text x="88" y="300" fill="#f4f4f5" font-size="76" font-weight="600" letter-spacing="-2">Paste</text>
    <text x="88" y="358" fill="#a1a1aa" font-size="30">A local clipboard for everything</text>
    <text x="88" y="398" fill="#a1a1aa" font-size="30">you paste. Text, code, images, files.</text>
    <text x="88" y="526" fill="#71717a" font-size="22">Private · Offline · Keyboard-first</text>
  </g>

  <g transform="translate(676 132)" font-family="Helvetica Neue, Helvetica, Arial, sans-serif" font-size="19">
    <rect width="440" height="370" rx="18" fill="#1a1a1d" stroke="#ffffff" stroke-opacity=".08"/>
    <rect x="12" y="16" width="416" height="52" rx="10" fill="#5b55e0" fill-opacity=".18"/>
    <rect x="12" y="30" width="3" height="24" rx="1.5" fill="#7c77f0"/>

    <rect x="30" y="31" width="22" height="22" rx="6" fill="#e0a43c"/>
    <text x="68" y="49" fill="#f4f4f5">#E0A43C</text>
    <text x="360" y="49" fill="#71717a" font-size="16">now</text>

    <g fill="none" stroke="#8b8b94" stroke-width="2.2" stroke-linecap="round" stroke-linejoin="round">
      <path d="M36 98l-6 6 6 6M46 98l6 6-6 6"/>
      <path d="M33 160h16M33 154v-3h16v3M41 151v16"/>
      <path d="M38 210a5 5 0 0 1 0-7l4-4a5 5 0 0 1 7 7l-2 2M44 212a5 5 0 0 1 0 7l-4 4a5 5 0 0 1-7-7l2-2"/>
      <path d="M30 280h22v-16H30zM34 276l5-6 4 4 3-3 4 5"/>
    </g>
    <text x="68" y="111" fill="#e4e4e7">npm i dexie fflate</text>
    <text x="250" y="111" fill="#71717a" font-size="16">shellscript</text>
    <text x="360" y="111" fill="#71717a" font-size="16">2m</text>

    <text x="68" y="167" fill="#e4e4e7">Meeting notes — Q4 plan</text>
    <text x="360" y="167" fill="#71717a" font-size="16">1h</text>

    <text x="68" y="223" fill="#e4e4e7">linear.app/changelog</text>
    <text x="360" y="223" fill="#71717a" font-size="16">3h</text>

    <text x="68" y="279" fill="#e4e4e7">Screenshot 2026-10-07.png</text>
    <text x="360" y="279" fill="#71717a" font-size="16">1d</text>

    <rect x="30" y="310" width="380" height="1" fill="#ffffff" fill-opacity=".06"/>
    <g fill="#71717a" font-size="15" transform="translate(0 6)">
      <rect x="30" y="320" width="26" height="24" rx="5" fill="none" stroke="#3f3f46"/>
      <text x="37" y="337" fill="#a1a1aa">↵</text>
      <text x="66" y="337">copy</text>
      <rect x="120" y="320" width="26" height="24" rx="5" fill="none" stroke="#3f3f46"/>
      <text x="128" y="337" fill="#a1a1aa">Q</text>
      <text x="156" y="337">one by one</text>
      <rect x="252" y="320" width="34" height="24" rx="5" fill="none" stroke="#3f3f46"/>
      <text x="259" y="337" fill="#a1a1aa">⌘K</text>
      <text x="296" y="337">search</text>
    </g>
  </g>
</svg>
